<?xml version="1.0" encoding="utf-8"?>
<!-- Generator: Adobe Illustrator 15.0.0, SVG Export Plug-In  -->
<!DOCTYPE svg PUBLIC "-//W3C//DTD SVG 1.1//EN" "http://www.w3.org/Graphics/SVG/1.1/DTD/svg11.dtd" [
	<!ENTITY ns_flows "http://ns.adobe.com/Flows/1.0/">
]>
<svg version="1.1"
	 xmlns="http://www.w3.org/2000/svg" xmlns:xlink="http://www.w3.org/1999/xlink" xmlns:a="http://ns.adobe.com/AdobeSVGViewerExtensions/3.0/"
	 x="0px" y="0px" width="1000px" height="200px" viewBox="-0.68 -0.076 1000 200" enable-background="new -0.68 -0.076 1000 200"
	 xml:space="preserve">
<defs>
</defs>
<path id="Shape_21_" fill="#F1A940" d="M35.903,152.002H0V13.983h57.143c15.495,0,27.362,4.006,35.601,12.094
	c8.239,8.087,12.396,19.425,12.396,34.089s-4.157,26.001-12.396,34.089c-8.239,8.088-20.105,12.094-35.601,12.094h-21.24V152.002z
	 M35.903,77.324h11.867c13.152,0,19.803-5.745,19.803-17.234c0-11.489-6.576-17.233-19.803-17.233H35.903V77.324z"/>
<path id="Shape_20_" fill="#F1A940" d="M103.023,104.233c0-6.954,1.436-13.455,4.233-19.501s6.727-11.262,11.716-15.722
	s10.96-7.937,17.838-10.506c6.878-2.57,14.437-3.855,22.6-3.855c8.087,0,15.57,1.285,22.449,3.779
	c6.878,2.494,12.85,5.971,17.914,10.431c5.064,4.459,8.995,9.75,11.792,15.949c2.796,6.198,4.232,13.001,4.232,20.408
	c0,7.482-1.436,14.285-4.308,20.408c-2.873,6.198-6.803,11.489-11.792,15.948c-4.989,4.46-11.036,7.937-18.065,10.355
	c-7.03,2.419-14.588,3.628-22.827,3.628c-8.087,0-15.495-1.209-22.373-3.628c-6.803-2.419-12.699-5.896-17.687-10.431
	c-4.913-4.535-8.844-9.902-11.641-16.176C104.459,118.897,103.023,111.942,103.023,104.233z M138.02,104.611
	c0,3.175,0.605,6.047,1.739,8.692s2.721,4.913,4.611,6.878c1.89,1.966,4.157,3.478,6.803,4.61c2.646,1.135,5.366,1.664,8.314,1.664
	c2.948,0,5.668-0.529,8.314-1.664c2.646-1.133,4.913-2.645,6.803-4.61c1.89-1.965,3.401-4.232,4.611-6.878
	c1.134-2.646,1.739-5.442,1.739-8.541c0-2.948-0.605-5.669-1.739-8.315s-2.721-4.913-4.611-6.878
	c-1.89-1.965-4.157-3.477-6.803-4.61s-5.366-1.663-8.314-1.663c-2.948,0-5.745,0.529-8.314,1.663
	c-2.646,1.134-4.913,2.646-6.803,4.61c-1.89,1.965-3.401,4.233-4.611,6.803C138.549,98.942,138.02,101.663,138.02,104.611z"/>
<polygon id="Shape_19_" fill="#F1A940" points="256.765,0 256.765,152.002 223.583,152.002 223.583,0 "/>
<path id="Shape_18_" fill="#F1A940" d="M262.358,29.101c0-2.57,0.454-4.989,1.436-7.256c0.983-2.268,2.343-4.233,4.006-5.971
	c1.739-1.739,3.704-3.023,5.972-4.006c2.268-0.982,4.686-1.436,7.256-1.436c2.57,0,4.989,0.454,7.256,1.436
	c2.268,0.983,4.233,2.343,5.971,4.006c1.739,1.738,3.023,3.704,4.006,5.971c0.982,2.268,1.436,4.687,1.436,7.256
	s-0.454,4.989-1.436,7.256c-0.983,2.268-2.343,4.232-4.006,5.971c-1.738,1.738-3.704,3.023-5.971,4.006s-4.686,1.436-7.256,1.436
	c-2.57,0-4.988-0.453-7.256-1.436s-4.233-2.343-5.972-4.006c-1.738-1.739-3.023-3.704-4.006-5.971
	C262.888,34.014,262.358,31.595,262.358,29.101z"/>
<rect id="Rectangle-path_1_" x="264.55" y="58.125" fill="#F1A940" width="33.182" height="93.953"/>
<polygon id="Shape_17_" fill="#F1A940" points="431.67,139.229 386.244,58.125 424.716,58.125 449.811,106.274 474.15,58.125 
	512.245,58.125 436.583,199.245 399.395,199.245 "/>
<path id="Shape_16_" fill="#F1A940" d="M620.71,104.233c0-6.954,1.437-13.455,4.233-19.501c2.796-6.047,6.727-11.262,11.716-15.722
	c4.988-4.459,10.959-7.937,17.838-10.506c6.878-2.57,14.437-3.855,22.6-3.855c8.088,0,15.571,1.285,22.449,3.779
	c6.879,2.494,12.85,5.971,17.914,10.431s8.995,9.75,11.791,15.949c2.797,6.198,4.233,13.001,4.233,20.408
	c0,7.482-1.437,14.285-4.309,20.408c-2.872,6.198-6.803,11.489-11.791,15.948c-4.989,4.46-11.036,7.937-18.065,10.355
	s-14.588,3.628-22.827,3.628c-8.088,0-15.495-1.209-22.373-3.628c-6.803-2.419-12.698-5.896-17.688-10.431
	c-4.913-4.535-8.843-9.902-11.64-16.176C622.147,118.897,620.71,111.942,620.71,104.233z M655.707,104.611
	c0,3.175,0.605,6.047,1.738,8.692c1.135,2.646,2.722,4.913,4.611,6.878c1.89,1.966,4.157,3.478,6.803,4.61
	c2.646,1.135,5.366,1.664,8.314,1.664c2.947,0,5.669-0.529,8.314-1.664c2.646-1.133,4.913-2.645,6.803-4.61
	c1.89-1.965,3.401-4.232,4.61-6.878c1.134-2.646,1.738-5.442,1.738-8.541c0-2.948-0.604-5.669-1.738-8.315s-2.721-4.913-4.61-6.878
	c-1.89-1.965-4.157-3.477-6.803-4.61s-5.367-1.663-8.314-1.663c-2.948,0-5.745,0.529-8.314,1.663
	c-2.646,1.134-4.913,2.646-6.803,4.61c-1.89,1.965-3.401,4.233-4.611,6.803C656.312,98.942,655.707,101.663,655.707,104.611z"/>
<path id="Shape_15_" fill="#F1A940" d="M850.114,58.125v87.528c0,5.216-0.303,9.978-0.907,14.135s-1.437,7.785-2.57,10.96
	c-1.436,4.006-3.779,7.785-6.878,11.262s-6.878,6.5-11.263,9.07c-4.384,2.57-9.372,4.611-14.89,6.047
	c-5.594,1.437-11.565,2.192-18.065,2.192c-7.332,0-14.059-0.907-20.182-2.722c-6.122-1.813-11.413-4.384-16.023-7.634
	c-4.611-3.25-8.314-7.029-11.263-11.338s-4.913-9.07-5.896-14.21h37.339c2.344,6.197,7.559,9.373,15.722,9.373
	c6.954,0,12.321-1.966,16.024-5.896c3.704-3.93,5.594-9.372,5.594-16.326v-8.995c-2.419,2.344-4.762,4.233-7.029,5.745
	s-4.535,2.797-6.879,3.779c-2.343,0.982-4.762,1.662-7.332,2.116c-2.569,0.453-5.366,0.604-8.39,0.604
	c-6.728,0-12.85-1.134-18.519-3.477c-5.593-2.344-10.507-5.518-14.588-9.676c-4.082-4.156-7.257-9.146-9.524-14.89
	c-2.268-5.82-3.4-12.245-3.4-19.351c0-7.18,1.209-13.907,3.628-20.03c2.419-6.198,5.744-11.565,9.978-16.1
	c4.232-4.61,9.221-8.163,15.041-10.809s12.094-3.931,18.972-3.931c11.111,0,20.484,4.157,28.043,12.472v-9.901H850.114z
	 M775.737,104.611c0,3.023,0.529,5.896,1.663,8.541s2.57,4.913,4.46,6.878c1.89,1.966,4.157,3.478,6.803,4.611
	s5.441,1.662,8.541,1.662c2.947,0,5.669-0.528,8.314-1.662s4.913-2.646,6.803-4.611c1.89-1.965,3.401-4.232,4.61-6.878
	c1.134-2.646,1.738-5.366,1.738-8.314c0-3.023-0.604-5.896-1.738-8.39c-1.134-2.57-2.721-4.837-4.687-6.803
	c-1.965-1.965-4.232-3.477-6.878-4.611s-5.366-1.663-8.163-1.663c-2.948,0-5.669,0.604-8.239,1.738
	c-2.569,1.134-4.837,2.721-6.803,4.611c-1.965,1.89-3.477,4.157-4.687,6.651C776.341,98.942,775.737,101.663,775.737,104.611z"/>
<path id="Shape_14_" fill="#F1A940" d="M891.005,58.125v52.91c0,11.564,5.594,17.385,16.855,17.385
	c11.263,0,16.855-5.82,16.855-17.385v-52.91h33.183v59.335c0,12.698-4.157,22.222-12.548,28.571
	c-8.39,6.35-20.861,9.523-37.414,9.523c-16.629,0-29.101-3.174-37.415-9.523c-8.391-6.35-12.548-15.873-12.548-28.571V58.125
	H891.005z"/>
<polygon id="Shape_13_" fill="#F1A940" points="998.791,0 998.791,152.002 965.609,152.002 965.609,0 "/>
<polygon id="Shape_12_" fill="#F1A940" points="595.163,13.983 559.637,13.983 532.2,87.604 521.088,58.125 501.663,94.407 
	524.112,152.002 538.398,152.002 570.975,72.562 582.917,152.002 618.594,152.002 "/>
<path id="Shape_11_" fill="#F1A940" d="M379.29,126.531c0,0-7.181,2.268-15.495,2.192c-11.262,0.075-24.641-3.932-24.641-23.356
	v-0.831c0-19.426,13.303-23.432,24.641-23.356c8.314-0.076,15.495,2.192,15.495,2.192V58.125c0,0-43.311-15.269-65.533,17.989
	c-1.89,2.721-3.552,5.745-4.913,8.995c-2.721,6.198-4.006,13.152-4.006,20.635c0,7.559,1.437,14.361,4.233,20.483
	c2.646,5.745,6.197,10.81,10.506,15.042c9.222,9.448,20.56,13.076,30.839,14.059c0.605,0.076,1.134,0.076,1.738,0.151h0.076
	c0.756,0.075,1.587,0.075,2.343,0.075c0.378,0,0.681,0,1.059,0c0.151,0,0.302,0,0.529,0h0.075
	c13.001,0.076,23.205-3.477,23.205-3.477L379.29,126.531z"/>
</svg>
